<?xml version="1.0" encoding="UTF-8" standalone="no"?>
<!-- Created with Inkscape (http://www.inkscape.org/) -->

<svg
   width="171.57745mm"
   height="12.817016mm"
   viewBox="0 0 171.57745 12.817016"
   version="1.1"
   id="svg1008"
   xmlns="http://www.w3.org/2000/svg"
   xmlns:svg="http://www.w3.org/2000/svg">
  <defs
     id="defs1005" />
  <g
     id="layer1"
     transform="translate(-9.7782088,-82.323585)">
    <g
       id="g6493">
      <g
         id="g6422">
        <g
           id="g4720"
           transform="matrix(0.51839961,0,0,0.64000388,128.03511,29.466885)"
           style="fill:#fffe00;fill-opacity:1">
          <path
             id="rect_resultado"
             data-itemmenu="resultado"
             class="item_menu"
			 onclick="fnMostrar(this)"
             style="fill:#0076ff;fill-opacity:1;stroke-width:0.373395"
             d="m 25.695529,82.631649 c 0,6.660404 0,13.320807 0,19.981211 22.551331,-0.009 45.10221,0.0164 67.653629,-0.0135 5.724293,-0.11043 10.404532,-5.877539 9.360292,-11.502526 -0.64927,-5.104337 -5.689026,-8.947598 -10.768031,-8.465215 -22.081963,0 -44.163927,0 -66.24589,0 z" />
        </g>
        <text
           xml:space="preserve"
           style="font-size:3.88056px;fill:#fffe00;fill-opacity:1;stroke-width:0.330416"
           x="180.86884"
           y="76.980881"
           id="text_resultado"
           transform="scale(0.8521726,1.1734712)"><tspan
             id="tspan5618"
             data-itemmenu="resultado"
             class="item_menu"
			 onclick="fnMostrar(this)"
             style="font-style:normal;font-variant:normal;font-weight:bold;font-stretch:normal;font-size:3.88056px;font-family:sans-serif;-inkscape-font-specification:'sans-serif Bold';fill:#000000;stroke-width:0.330416"
             x="180.86884"
             y="76.980881">Resultado</tspan></text>
      </g>
    </g>
    <g
       id="g6416">
      <path
         id="rect_processo"
         data-itemmenu="processo"
         class="item_menu"
		 onclick="fnMostrar(this)"
         style="fill:#916f6f;fill-opacity:1;stroke-width:0.220166"
         d="m 107.86058,82.351461 c 0,4.262684 0,8.525368 0,12.788053 12.25053,-0.0058 24.50079,0.0105 36.75132,-0.0086 3.1096,-0.07067 5.65204,-3.761643 5.08478,-7.361661 -0.35345,-3.28011 -3.10851,-5.736892 -5.87552,-5.41777 -11.98685,0 -23.97369,0 -35.96058,0 z" />
      <text
         xml:space="preserve"
         style="font-size:2.92154px;white-space:pre;inline-size:27.3331;display:inline;fill:#fffe00;fill-opacity:1;stroke-width:0.264583"
         x="92.833771"
         y="87.225082"
         id="text_processo"
         transform="matrix(1.2039108,0,0,1.4654508,2.0282185,-37.696208)"><tspan
           x="92.833771"
           y="87.225082"
           id="tspan358"><tspan
		   data-itemmenu="processo"
		   class="item_menu"
		   onclick="fnMostrar(this)"
             style="font-weight:bold;-inkscape-font-specification:'sans-serif Bold';fill:#000000"
             id="tspan356">Processo Trabalho</tspan></tspan></text>
    </g>
    <g
       id="g6411">
      <g
         id="g2534"
         transform="matrix(0.51839964,0,0,0.64000388,61.655422,29.466885)"
         style="fill:#44aa01;fill-opacity:1">
        <path
           id="rect_gestao"
           data-itemmenu="gestao"
           class="item_menu"
		   onclick="fnMostrar(this)"
           style="fill:#44aa01;fill-opacity:1;stroke-width:0.373395"
           d="m 21.419881,82.631649 c 0,6.660404 0,13.320807 0,19.981211 22.551331,-0.009 45.10221,0.0164 67.653629,-0.0135 5.724293,-0.11043 10.404526,-5.87754 9.360288,-11.502526 -0.649274,-5.104336 -5.689023,-8.947599 -10.768027,-8.465215 -22.081963,0 -44.163927,0 -66.24589,0 z" />
      </g>
      <text
         xml:space="preserve"
         style="font-size:3.88056px;fill:#fffe00;fill-opacity:1;stroke-width:0.330416"
         x="102.09452"
         y="76.969238"
         id="text_gestao"
         transform="scale(0.8521726,1.1734712)"><tspan
           id="tspan17"
           data-itemmenu="gestao"
		   class="item_menu"
		   onclick="fnMostrar(this)"
           style="font-style:normal;font-variant:normal;font-weight:bold;font-stretch:normal;font-size:3.88056px;font-family:sans-serif;-inkscape-font-specification:'sans-serif Bold';fill:#000000;stroke-width:0.330416"
           x="102.09452"
           y="76.969238">Gestão</tspan></text>
    </g>
    <g
       id="g6405">
      <g
         id="g1127"
         transform="matrix(0.51839964,0,0,0.64000388,32.554889,29.466885)"
         style="fill:#c87137;fill-opacity:1">
        <path
           id="rect_infra"
           data-itemmenu="infraestrutura"
           class="item_menu"
		   onclick="fnMostrar(this)"
           style="fill:#c87137;fill-opacity:1;stroke-width:0.373395"
           d="m 21.419881,82.631649 c 0,6.660404 0,13.320807 0,19.981211 22.551331,-0.009 45.10221,0.0164 67.653629,-0.0135 5.724293,-0.11043 10.404526,-5.87754 9.360288,-11.502526 -0.649274,-5.104336 -5.689023,-8.947599 -10.768027,-8.465215 -22.081963,0 -44.163927,0 -66.24589,0 z" />
      </g>
      <text
         xml:space="preserve"
         style="font-size:3.88056px;fill:#fffe00;fill-opacity:1;stroke-width:0.330416"
         x="60.751331"
         y="77.000282"
         id="text_infra"
         transform="scale(0.8521726,1.1734712)"><tspan
           id="tspan5556"
           data-itemmenu="infraestrutura"
           class="item_menu"
		   onclick="fnMostrar(this)"
           style="font-style:normal;font-variant:normal;font-weight:bold;font-stretch:normal;font-size:3.88056px;font-family:sans-serif;-inkscape-font-specification:'sans-serif Bold';fill:#000000;stroke-width:0.330416"
           x="60.751331"
           y="77.000282">Infraestrutura</tspan></text>
    </g>
    <g
       id="g6399">
      <g
         id="g6173"
         transform="matrix(1.3964679,0,0,1.4654508,-18.656038,-38.317552)">
        <path
           id="rect_visao"
           data-itemmenu="visao"
           class="item_menu"
		   onclick="fnMostrar(this)"
           style="fill:#e8af03;fill-opacity:1;stroke-width:0.150359"
           d="m 20.361547,82.342589 c 0,2.908787 0,5.817574 0,8.726361 8.373058,-0.0038 16.74595,0.0072 25.119024,-0.0059 2.231996,-0.132823 3.66892,-2.495277 3.51315,-4.582479 -0.01609,-2.051504 -1.632411,-4.228685 -3.824337,-4.137999 -8.269279,0 -16.538558,0 -24.807837,0 z" />
        <text
           xml:space="preserve"
           style="font-size:2.71264px;fill:#fffe00;fill-opacity:1;stroke-width:0.264583"
           x="27.203289"
           y="87.490311"
           id="text_visao"><tspan
             id="tspan5500"
             data-itemmenu="visao"
             class="item_menu"
			 onclick="fnMostrar(this)"
             style="font-style:normal;font-variant:normal;font-weight:bold;font-stretch:normal;font-size:2.71264px;font-family:sans-serif;-inkscape-font-specification:'sans-serif Bold';fill:#000000;stroke-width:0.264583"
             x="27.203289"
             y="87.490311">Visão Geral</tspan></text>
      </g>
    </g>
  </g>
</svg>
