<?xml version="1.0" encoding="UTF-8" standalone="no"?>
<!-- Created with Inkscape (http://www.inkscape.org/) -->

<svg
   width="178.27737mm"
   height="13.096453mm"
   viewBox="0 0 178.27737 13.096453"
   version="1.1"
   id="svg5"
   inkscape:version="1.2.1 (9c6d41e410, 2022-07-14)"
   sodipodi:docname="todos.svg"
   inkscape:export-filename="menu.svg"
   inkscape:export-xdpi="96"
   inkscape:export-ydpi="96"
   xmlns:inkscape="http://www.inkscape.org/namespaces/inkscape"
   xmlns:sodipodi="http://sodipodi.sourceforge.net/DTD/sodipodi-0.dtd"
   xmlns="http://www.w3.org/2000/svg"
   xmlns:svg="http://www.w3.org/2000/svg">
  <sodipodi:namedview
     id="namedview7"
     pagecolor="#ffffff"
     bordercolor="#000000"
     borderopacity="0.25"
     inkscape:showpageshadow="2"
     inkscape:pageopacity="0.0"
     inkscape:pagecheckerboard="0"
     inkscape:deskcolor="#d1d1d1"
     inkscape:document-units="mm"
     showgrid="false"
     inkscape:zoom="4.1776836"
     inkscape:cx="321.94875"
     inkscape:cy="29.202786"
     inkscape:window-width="1920"
     inkscape:window-height="1009"
     inkscape:window-x="4472"
     inkscape:window-y="-8"
     inkscape:window-maximized="1"
     inkscape:current-layer="layer1" />
  <defs
     id="defs2">
    <clipPath
       id="clip0">
      <rect
         x="56"
         y="451"
         width="154"
         height="49"
         id="rect759" />
    </clipPath>
    <clipPath
       id="clip0-7">
      <rect
         x="554"
         y="505"
         width="149"
         height="48"
         id="rect2056" />
    </clipPath>
  </defs>
  <g
     inkscape:label="Camada 1"
     inkscape:groupmode="layer"
     id="layer1"
     transform="translate(-8.7849911,-22.758039)">
    <g
       id="g700"
       transform="translate(-34.199574,-15.199811)">
      <g
         clip-path="url(#clip0-7)"
         transform="matrix(0.26458333,0,0,0.26458333,-103.5946,-95.539973)"
         id="g2063">
        <path
           d="M 678.167,553 H 554 c 13.715,0 24.833,-10.745 24.833,-24 0,-13.255 -11.118,-24 -24.833,-24 h 124.167 c 13.715,0 24.833,10.745 24.833,24 0,13.255 -11.118,24 -24.833,24 z"
           fill="#ffc000"
           fill-rule="evenodd"
           id="vgeral" />
      </g>
      <g
         aria-label="Visão Geral"
         id="text2857"
         style="font-size:4.23333px;fill:#c87137;stroke-width:0.264583"
         transform="translate(1.5875)">
        <path
           d="m 53.774282,42.98951 -1.028699,3.022598 h -0.6985 L 51.022617,42.98951 h 0.6477 l 0.567266,1.799166 q 0.0127,0.04657 0.04657,0.173566 0.03387,0.122767 0.06773,0.262467 0.03387,0.135466 0.04657,0.228599 0.0127,-0.09313 0.04233,-0.228599 0.03387,-0.1397 0.0635,-0.262467 0.03387,-0.127 0.0508,-0.173566 l 0.571499,-1.799166 z"
           style="font-weight:bold;-inkscape-font-specification:'sans-serif Bold';fill:#000000"
           id="path6300" />
        <path
           d="m 54.42198,42.794777 q 0.139699,0 0.241299,0.06773 0.1016,0.0635 0.1016,0.2413 0,0.173567 -0.1016,0.2413 -0.1016,0.06773 -0.241299,0.06773 -0.143934,0 -0.245534,-0.06773 -0.09737,-0.06773 -0.09737,-0.2413 0,-0.1778 0.09737,-0.2413 0.1016,-0.06773 0.245534,-0.06773 z m 0.313266,0.905933 v 2.311398 H 54.10448 V 43.70071 Z"
           style="font-weight:bold;-inkscape-font-specification:'sans-serif Bold';fill:#000000"
           id="path6302" />
        <path
           d="m 57.008545,45.326308 q 0,0.351367 -0.249766,0.541867 -0.245533,0.186266 -0.7366,0.186266 -0.241299,0 -0.414866,-0.03387 -0.173566,-0.02963 -0.347133,-0.1016 v -0.5207 q 0.186267,0.08467 0.402166,0.1397 0.2159,0.05503 0.381,0.05503 0.182033,0 0.262466,-0.05503 0.08043,-0.05503 0.08043,-0.143933 0,-0.05927 -0.03387,-0.105834 -0.02963,-0.04657 -0.135466,-0.105833 -0.105834,-0.05927 -0.3302,-0.1524 -0.220133,-0.09313 -0.359833,-0.182033 -0.135467,-0.09313 -0.2032,-0.220133 -0.06773,-0.131233 -0.06773,-0.325966 0,-0.321733 0.249766,-0.4826 0.249767,-0.160867 0.664633,-0.160867 0.2159,0 0.410633,0.04233 0.194733,0.04233 0.402166,0.1397 l -0.1905,0.452966 q -0.169333,-0.07197 -0.321733,-0.118533 -0.1524,-0.0508 -0.309033,-0.0508 -0.2794,0 -0.2794,0.1524 0,0.05503 0.03387,0.1016 0.0381,0.04233 0.1397,0.09313 0.105833,0.0508 0.309033,0.135466 0.198967,0.08043 0.3429,0.169334 0.143933,0.08467 0.220133,0.215899 0.08043,0.131234 0.08043,0.334433 z"
           style="font-weight:bold;-inkscape-font-specification:'sans-serif Bold';fill:#000000"
           id="path6304" />
        <path
           d="m 58.447876,43.654143 q 0.465667,0 0.7112,0.2032 0.249766,0.198966 0.249766,0.613833 v 1.540932 h -0.440266 l -0.122767,-0.313267 h -0.01693 q -0.148167,0.186267 -0.313266,0.270934 -0.1651,0.08467 -0.452967,0.08467 -0.309033,0 -0.512233,-0.1778 -0.203199,-0.1778 -0.203199,-0.554566 0,-0.3683 0.258233,-0.541866 0.258233,-0.173567 0.774699,-0.194733 l 0.402166,-0.0127 v -0.1016 q 0,-0.182033 -0.09737,-0.2667 -0.09313,-0.08467 -0.262467,-0.08467 -0.169333,0 -0.330199,0.0508 -0.160867,0.04657 -0.321733,0.118534 L 57.56311,43.861576 q 0.182034,-0.09313 0.410633,-0.148166 0.2286,-0.05927 0.474133,-0.05927 z m 0.334433,1.286932 -0.245533,0.0085 q -0.3048,0.0085 -0.423333,0.110067 -0.118533,0.1016 -0.118533,0.266699 0,0.143934 0.08467,0.207434 0.08467,0.05927 0.220133,0.05927 0.2032,0 0.342899,-0.118533 0.1397,-0.122767 0.1397,-0.3429 z M 57.58851,43.450943 q 0.0254,-0.330199 0.182034,-0.482599 0.160866,-0.156633 0.380999,-0.156633 0.1143,0 0.220133,0.05503 0.105834,0.05503 0.211667,0.110066 0.105833,0.0508 0.2032,0.0508 0.0635,0 0.122766,-0.05503 0.05927,-0.05503 0.08467,-0.1651 h 0.309033 q -0.0254,0.325967 -0.186267,0.4826 -0.160866,0.156633 -0.376766,0.156633 -0.110067,0 -0.220133,-0.0508 -0.110067,-0.05503 -0.211667,-0.110067 -0.1016,-0.05503 -0.203199,-0.05503 -0.0635,0 -0.122767,0.05503 -0.05927,0.05503 -0.08467,0.1651 z"
           style="font-weight:bold;-inkscape-font-specification:'sans-serif Bold';fill:#000000"
           id="path6306" />
        <path
           d="m 62.156273,44.852175 q 0,0.575733 -0.304799,0.889 -0.300567,0.313266 -0.821266,0.313266 -0.321733,0 -0.575733,-0.1397 -0.249767,-0.1397 -0.3937,-0.406399 -0.143933,-0.270933 -0.143933,-0.656167 0,-0.575732 0.300566,-0.884765 0.300567,-0.309034 0.8255,-0.309034 0.325966,0 0.575733,0.1397 0.249766,0.1397 0.393699,0.4064 0.143933,0.2667 0.143933,0.647699 z m -1.595965,0 q 0,0.3429 0.110067,0.5207 0.1143,0.173567 0.368299,0.173567 0.249767,0 0.359833,-0.173567 0.1143,-0.1778 0.1143,-0.5207 0,-0.342899 -0.1143,-0.512232 -0.110066,-0.173567 -0.364066,-0.173567 -0.249766,0 -0.364066,0.173567 -0.110067,0.169333 -0.110067,0.512232 z"
           style="font-weight:bold;-inkscape-font-specification:'sans-serif Bold';fill:#000000"
           id="path6308" />
        <path
           d="m 64.97567,44.314543 h 1.198033 v 1.566332 q -0.237067,0.08043 -0.4953,0.127 -0.258233,0.04657 -0.579966,0.04657 -0.677333,0 -1.041399,-0.397933 -0.364067,-0.397933 -0.364067,-1.159932 0,-0.474133 0.182034,-0.821266 0.182033,-0.347133 0.533399,-0.537633 0.3556,-0.1905 0.863599,-0.1905 0.2413,0 0.474133,0.0508 0.232833,0.0508 0.423333,0.135467 l -0.211666,0.512233 q -0.1397,-0.07197 -0.3175,-0.118534 -0.1778,-0.04657 -0.372533,-0.04657 -0.2794,0 -0.486833,0.127 -0.2032,0.126999 -0.3175,0.359833 -0.110066,0.232833 -0.110066,0.541866 0,0.296333 0.08043,0.524933 0.08043,0.228599 0.254,0.359833 0.173566,0.127 0.452966,0.127 0.135467,0 0.2286,-0.0127 0.09313,-0.0127 0.1778,-0.02963 v -0.630766 h -0.5715 z"
           style="font-weight:bold;-inkscape-font-specification:'sans-serif Bold';fill:#000000"
           id="path6310" />
        <path
           d="m 67.795072,43.658376 q 0.478366,0 0.757766,0.275167 0.2794,0.270933 0.2794,0.774699 v 0.3048 h -1.490132 q 0.0085,0.2667 0.156633,0.4191 0.1524,0.1524 0.419099,0.1524 0.220134,0 0.402167,-0.04233 0.186266,-0.04657 0.380999,-0.1397 v 0.486833 q -0.173566,0.08467 -0.359833,0.122767 -0.186266,0.04233 -0.452966,0.04233 -0.347133,0 -0.613833,-0.127 -0.266699,-0.131233 -0.419099,-0.389466 -0.1524,-0.262467 -0.1524,-0.664633 0,-0.402166 0.135466,-0.673099 0.1397,-0.270933 0.385233,-0.4064 0.245533,-0.135467 0.5715,-0.135467 z m 0.0042,0.448733 q -0.186266,0 -0.3048,0.118534 -0.118533,0.118533 -0.139699,0.368299 h 0.884766 q -0.0042,-0.207433 -0.1143,-0.347133 -0.105834,-0.1397 -0.325967,-0.1397 z"
           style="font-weight:bold;-inkscape-font-specification:'sans-serif Bold';fill:#000000"
           id="path6312" />
        <path
           d="m 70.635634,43.658376 q 0.04657,0 0.110067,0.0042 0.0635,0.0042 0.1016,0.0127 l -0.04657,0.592666 q -0.03387,-0.0085 -0.0889,-0.0127 -0.05503,-0.0085 -0.09737,-0.0085 -0.160867,0 -0.309034,0.05927 -0.148166,0.05503 -0.241299,0.182033 -0.0889,0.127 -0.0889,0.347133 v 1.176866 H 69.344469 V 43.70071 h 0.478366 l 0.09313,0.389466 h 0.02963 q 0.1016,-0.1778 0.2794,-0.3048 0.1778,-0.127 0.410633,-0.127 z"
           style="font-weight:bold;-inkscape-font-specification:'sans-serif Bold';fill:#000000"
           id="path6314" />
        <path
           d="m 72.129999,43.654143 q 0.465667,0 0.7112,0.2032 0.249766,0.198966 0.249766,0.613833 v 1.540932 h -0.440266 l -0.122767,-0.313267 h -0.01693 q -0.148166,0.186267 -0.313266,0.270934 -0.1651,0.08467 -0.452967,0.08467 -0.309033,0 -0.512232,-0.1778 -0.2032,-0.1778 -0.2032,-0.554566 0,-0.3683 0.258233,-0.541866 0.258233,-0.173567 0.774699,-0.194733 l 0.402167,-0.0127 v -0.1016 q 0,-0.182033 -0.09737,-0.2667 -0.09313,-0.08467 -0.262466,-0.08467 -0.169334,0 -0.3302,0.0508 -0.160867,0.04657 -0.321733,0.118534 l -0.207433,-0.427567 q 0.182033,-0.09313 0.410633,-0.148166 0.228599,-0.05927 0.474132,-0.05927 z m 0.334434,1.286932 -0.245534,0.0085 q -0.304799,0.0085 -0.423333,0.110067 -0.118533,0.1016 -0.118533,0.266699 0,0.143934 0.08467,0.207434 0.08467,0.05927 0.220133,0.05927 0.2032,0 0.3429,-0.118533 0.1397,-0.122767 0.1397,-0.3429 z"
           style="font-weight:bold;-inkscape-font-specification:'sans-serif Bold';fill:#000000"
           id="path6316" />
        <path
           d="m 74.369432,46.012108 h -0.630766 v -3.217331 h 0.630766 z"
           style="font-weight:bold;-inkscape-font-specification:'sans-serif Bold';fill:#000000"
           id="path6318" />
      </g>
    </g>
    <g
       id="g706"
       transform="translate(-70.42579,-15.199811)">
      <g
         clip-path="url(#clip0-7)"
         transform="matrix(0.26458333,0,0,0.26458333,-34.480149,-95.539973)"
         id="g2075"
         style="fill:#c87137">
        <path
           d="M 678.167,553 H 554 c 13.715,0 24.833,-10.745 24.833,-24 0,-13.255 -11.118,-24 -24.833,-24 h 124.167 c 13.715,0 24.833,10.745 24.833,24 0,13.255 -11.118,24 -24.833,24 z"
           fill="#ffc000"
           fill-rule="evenodd"
           id="vinfra"
           style="fill:#c87137" />
      </g>
      <text
         xml:space="preserve"
         style="font-size:4.23333px;fill:#c87137;stroke-width:0.264583"
         x="119.45084"
         y="46.02269"
         id="text2857-7"><tspan
           sodipodi:role="line"
           id="tspan2855-6"
           style="font-style:normal;font-variant:normal;font-weight:bold;font-stretch:normal;font-size:4.23333px;font-family:sans-serif;-inkscape-font-specification:'sans-serif Bold';fill:#000000;stroke-width:0.264583"
           x="119.45084"
           y="46.02269">Infraestrutura</tspan></text>
    </g>
    <g
       id="g712"
       transform="translate(31.390436,-33.946244)">
      <g
         clip-path="url(#clip0-7)"
         transform="matrix(0.26458333,0,0,0.26458333,-103.98316,-76.910299)"
         id="g3040"
         style="fill:#44aa00">
        <path
           d="M 678.167,553 H 554 c 13.715,0 24.833,-10.745 24.833,-24 0,-13.255 -11.118,-24 -24.833,-24 h 124.167 c 13.715,0 24.833,10.745 24.833,24 0,13.255 -11.118,24 -24.833,24 z"
           fill="#ffc000"
           fill-rule="evenodd"
           id="vgestao"
           style="fill:#44aa00" />
      </g>
      <text
         xml:space="preserve"
         style="font-size:4.23333px;fill:#c87137;stroke-width:0.264583"
         x="57.053905"
         y="64.462646"
         id="text3044"><tspan
           sodipodi:role="line"
           id="tspan3042"
           style="font-style:normal;font-variant:normal;font-weight:bold;font-stretch:normal;font-size:4.23333px;font-family:sans-serif;-inkscape-font-specification:'sans-serif Bold';fill:#000000;stroke-width:0.264583"
           x="57.053905"
           y="64.462646">Gestão</tspan></text>
    </g>
    <g
       id="g718"
       transform="matrix(1,0,0,1.1073038,0,-37.228427)">
      <g
         clip-path="url(#clip0-7)"
         transform="matrix(0.33190791,0,0,0.2459238,-78.943223,-69.995078)"
         id="g4602"
         style="fill:#916f6f">
        <path
           d="M 678.167,553 H 554 c 13.715,0 24.833,-10.745 24.833,-24 0,-13.255 -11.118,-24 -24.833,-24 h 124.167 c 13.715,0 24.833,10.745 24.833,24 0,13.255 -11.118,24 -24.833,24 z"
           fill="#ffc000"
           fill-rule="evenodd"
           id="path4600"
           style="fill:#916f6f" />
      </g>
      <text
         xml:space="preserve"
         style="font-size:4.23333px;fill:#c87137;stroke-width:0.264583"
         x="114.1573"
         y="61.686111"
         id="text4606"><tspan
           sodipodi:role="line"
           id="tspan4604"
           style="font-style:normal;font-variant:normal;font-weight:bold;font-stretch:normal;font-size:4.23333px;font-family:sans-serif;-inkscape-font-specification:'sans-serif Bold';fill:#000000;stroke-width:0.264583"
           x="114.1573"
           y="61.686111">Processo Trabalho</tspan></text>
    </g>
    <g
       id="g724"
       transform="translate(35.719555,-50.919366)">
      <g
         clip-path="url(#clip0-7)"
         transform="matrix(0.26458333,0,0,0.26458333,-34.659276,-59.892808)"
         id="g5336"
         style="fill:#ffff00">
        <path
           d="M 678.167,553 H 554 c 13.715,0 25.23143,-10.75099 24.833,-24 C 578.46122,516.63727 566.18746,508.3474 554,505 h 124.167 c 13.715,0 24.833,10.745 24.833,24 0,13.255 -11.118,24 -24.833,24 z"
           fill="#ffc000"
           fill-rule="evenodd"
           id="path5334"
           style="fill:#ffff00"
           sodipodi:nodetypes="scscsss" />
      </g>
      <text
         xml:space="preserve"
         style="font-size:4.23333px;fill:#c87137;stroke-width:0.264583"
         x="123.39174"
         y="81.659271"
         id="text5340"><tspan
           sodipodi:role="line"
           id="tspan5338"
           style="font-style:normal;font-variant:normal;font-weight:bold;font-stretch:normal;font-size:4.23333px;font-family:sans-serif;-inkscape-font-specification:'sans-serif Bold';fill:#000000;stroke-width:0.264583"
           x="123.39174"
           y="81.659271">Resultado</tspan></text>
    </g>
  </g>
</svg>
